<?xml version="1.0" ?>
<!-- Uploaded to: SVG Repo, www.svgrepo.com, Generator: SVG Repo Mixer Tools -->
<svg width="800px" height="800px" viewBox="0 0 113.4 113.4" id="Capa_1" version="1.1" xml:space="preserve" xmlns="http://www.w3.org/2000/svg" xmlns:xlink="http://www.w3.org/1999/xlink">
<style type="text/css">
	.st0{fill:#FFFFFF;stroke:#000000;stroke-linecap:round;stroke-linejoin:round;stroke-miterlimit:10;}
	.st1{fill:#B67F6F;stroke:#000000;stroke-linecap:round;stroke-linejoin:round;stroke-miterlimit:10;}
	.st2{fill:#EEBFB2;stroke:#000000;stroke-linecap:round;stroke-linejoin:round;stroke-miterlimit:10;}
	.st3{fill:none;stroke:#000000;stroke-linecap:round;stroke-linejoin:round;stroke-miterlimit:10;}
</style>
<g>
<path class="st2" d="M57.8,74.5c-1.3,0-2.4-1.1-2.4-2.4l0-23.1l-20.5,0c-1.3,0-2.4-1.1-2.4-2.4l0-14.5c0-1.3,1.1-2.4,2.4-2.4   l43.7,0c1.3,0,2.4,1.1,2.4,2.4c0,1.3-1.1,2.4-2.4,2.4l-41.3,0l0,9.7l20.5,0c1.3,0,2.4,1.1,2.4,2.4l0,25.5   C60.2,73.4,59.1,74.5,57.8,74.5z"/>
<path class="st0" d="M74.8,39.6l-33.7,0c-1.1,0-2.1-0.9-2.1-2.1l0-10.9c0-1.1,0.9-2.1,2.1-2.1l33.7,0c1.1,0,2.1,0.9,2.1,2.1l0,10.9   C76.9,38.7,76,39.6,74.8,39.6z"/>
<path class="st1" d="M59.1,88.8l-2.7,0c-1.7,0-3.1-1.4-3.1-3.1l0-22.1c0-1.7,1.4-3.1,3.1-3.1l2.7,0c1.7,0,3.1,1.4,3.1,3.1l0,22.1   C62.2,87.4,60.8,88.8,59.1,88.8z"/>
</g>
</svg>